<svg aria-hidden="true" style="position: absolute; width: 0; height: 0; overflow: hidden;" version="1.1" xmlns="http://www.w3.org/2000/svg" xmlns:xlink="http://www.w3.org/1999/xlink">
<defs>
<symbol id="icon-moon" viewBox="0 0 32 32">
<path fill="#3e85f3" style="fill: var(--color1, #3e85f3)" d="M29.987 17.672c-1.084 0.288-2.201 0.434-3.323 0.434-3.416 0-6.624-1.328-9.034-3.738-1.582-1.591-2.72-3.57-3.299-5.738s-0.581-4.45-0.003-6.619c0.072-0.271 0.072-0.556-0.001-0.827s-0.216-0.518-0.414-0.716c-0.199-0.198-0.446-0.341-0.717-0.413s-0.556-0.073-0.827 0c-2.715 0.724-5.192 2.148-7.182 4.131-6.237 6.237-6.237 16.389 0 22.629 1.482 1.491 3.246 2.673 5.188 3.477s4.025 1.216 6.127 1.211c2.102 0.006 4.184-0.405 6.126-1.21s3.704-1.986 5.186-3.477c1.984-1.991 3.41-4.469 4.133-7.186 0.072-0.271 0.071-0.556-0.002-0.827s-0.216-0.518-0.414-0.716c-0.198-0.198-0.445-0.341-0.716-0.414s-0.556-0.074-0.827-0.002zM25.552 24.554c-1.186 1.192-2.596 2.137-4.149 2.781s-3.219 0.972-4.9 0.968c-1.682 0.004-3.348-0.325-4.902-0.969s-2.965-1.589-4.151-2.782c-4.989-4.99-4.989-13.112 0-18.102 0.964-0.963 2.077-1.764 3.296-2.373-0.178 2.303 0.142 4.616 0.94 6.784s2.055 4.136 3.684 5.773c1.633 1.634 3.602 2.894 5.77 3.693s4.484 1.117 6.787 0.933c-0.612 1.217-1.413 2.329-2.374 3.294z"></path>
</symbol>
<symbol id="icon-sun" viewBox="0 0 32 32">
<path fill="#3e85f3" style="fill: var(--color1, #3e85f3)" d="M7.989 16c0 4.418 3.594 8.011 8.011 8.011s8.011-3.594 8.011-8.011-3.594-8.011-8.011-8.011c-4.418 0-8.011 3.594-8.011 8.011zM16 11.189c2.653 0 4.811 2.158 4.811 4.811s-2.158 4.811-4.811 4.811c-2.653 0-4.811-2.158-4.811-4.811s2.158-4.811 4.811-4.811zM14.397 27.2h3.2v4.8h-3.2v-4.8zM14.397 0h3.2v4.8h-3.2v-4.8zM-0.003 14.4h4.8v3.2h-4.8v-3.2zM27.197 14.4h4.8v3.2h-4.8v-3.2zM3.55 26.181l3.392-3.395 2.264 2.262-3.392 3.395-2.264-2.262zM22.784 6.95l3.395-3.395 2.262 2.262-3.395 3.395-2.262-2.262zM6.947 9.214l-3.395-3.395 2.264-2.262 3.392 3.395-2.261 2.262zM28.442 26.182l-2.262 2.262-3.395-3.395 2.262-2.262 3.395 3.395z"></path>
</symbol>
</defs>
</svg>
