<svg width="187" height="415" viewBox="0 0 187 415" fill="none" xmlns="http://www.w3.org/2000/svg">
<g filter="url(#filter0_d_12469_801)">
<ellipse cx="91.0207" cy="201.384" rx="29.9748" ry="37.7669" fill="white"/>
<ellipse cx="91.0202" cy="201.384" rx="25.0134" ry="33.2266" fill="white"/>
<ellipse cx="2.02007" cy="3.17442" rx="2.02007" ry="3.17442" transform="matrix(0.986705 0.167336 -0.167615 0.985047 79.1543 131.312)" fill="white"/>
<ellipse cx="2.02007" cy="3.17442" rx="2.02007" ry="3.17442" transform="matrix(-0.988253 0.157966 0.15823 0.986593 103.513 130.875)" fill="white"/>
<path fill-rule="evenodd" clip-rule="evenodd" d="M91.5096 123.63C87.5141 123.659 79.8037 125.391 80.9272 132.086C81.6803 136.574 80.2254 138.108 78.6528 139.765C77.2929 141.199 75.8451 142.725 75.6605 146.334C75.4928 149.612 76.3802 151.911 77.2659 154.205C78.4831 157.358 79.697 160.503 78.1655 166.17C76.0486 174.003 75.9373 196.448 76.2499 206.613L91.115 206.613L91.1151 206.613L105.772 206.683C106.181 196.521 106.49 174.291 104.448 166.438C103.009 160.905 104.746 158.159 106.477 155.421C107.817 153.302 109.155 151.187 109.013 147.79C108.862 144.158 107.006 142.369 105.219 140.645C103.174 138.674 101.219 136.789 102.01 132.33C103.198 125.646 95.5041 123.841 91.509 123.774L91.5096 123.63Z" fill="white"/>
<ellipse cx="4.88203" cy="6.87666" rx="4.88203" ry="6.87666" transform="matrix(-0.906265 0.423982 0.424691 0.904744 81.5415 141.361)" fill="white"/>
<ellipse cx="4.88203" cy="6.87666" rx="4.88203" ry="6.87666" transform="matrix(-0.839164 -0.544506 -0.545417 0.837757 111.449 147.012)" fill="white"/>
<path d="M106.079 189.525C95.4565 194.055 81.5633 192.336 76.2866 190.013L76.3394 193.488C88.2589 199.636 101.086 195.621 106.127 192.97L106.079 189.525Z" fill="white"/>
<path d="M106.157 192.862C93.4438 198.801 81.6244 195.695 76.3144 193.432L76.413 196.155C88.4251 202.17 101.123 199.404 106.101 196.686L106.157 192.862Z" fill="white"/>
<ellipse opacity="0.2" cx="0.905879" cy="1.42353" rx="0.905879" ry="1.42353" transform="matrix(0.912008 0.411526 -0.412214 0.910477 101.663 131.605)" fill="white"/>
<ellipse opacity="0.2" cx="0.905879" cy="1.42353" rx="0.905879" ry="1.42353" transform="matrix(0.912008 0.411526 -0.412214 0.910477 80.2769 131.825)" fill="white"/>
<path d="M83.2721 139.849C82.8577 129.813 92.5074 128.184 92.466 128.307C102.148 130.947 101.235 139.592 100.886 140.87C99.9234 144.388 105.788 147.53 104.014 151.193C102.24 154.856 102.227 162.502 100.757 167.83C99.8568 171.094 98.5142 172.282 97.5678 172.581C97.8205 172.584 97.7148 172.597 97.461 172.611C97.2166 172.674 97.0027 172.676 96.8353 172.641C97.0679 172.631 97.2958 172.621 97.461 172.611C97.496 172.603 97.5316 172.592 97.5678 172.581C97.2356 172.576 96.2843 172.587 94.2359 172.628C88.4588 172.745 88.1338 165.175 83.1928 156.501C78.2518 147.827 83.79 152.395 83.2721 139.849Z" fill="white"/>
<path d="M94.2532 168.952C89.634 168.526 88.1905 158.279 88.0461 153.208C90.8892 152.597 97.05 151.751 98.9491 153.26C101.323 155.145 100.027 169.484 94.2532 168.952Z" fill="white"/>
<path d="M95.1981 167.659C98.4348 167.27 97.4479 160.197 96.5499 156.708L90.2681 156.678C90.5628 160.5 91.9614 168.047 95.1981 167.659Z" fill="white"/>
<path d="M94.852 165.127C95.522 164.654 94.5797 157.654 94.0248 154.213L92.644 154.354C93.1009 158.142 94.182 165.601 94.852 165.127Z" fill="white"/>
<path d="M86.1876 149.306C89.3384 142.689 87.5363 139.005 86.2415 137.989C91.1241 131.611 96.6999 135.372 98.8774 138.049C95.1641 144.519 97.9326 139.342 100.268 149.373C102.136 157.398 96.8229 160.098 93.9329 160.444C90.0383 159.489 83.0367 155.923 86.1876 149.306Z" fill="white"/>
<path d="M100.646 152.72C93.3 142.651 87.8063 149.968 85.9777 154.885C86.6421 156.907 89.1986 160.855 94.1105 160.475C99.0224 160.094 100.514 155.147 100.646 152.72Z" fill="white"/>
<path d="M92.4005 151.418C92.3235 150.563 92.0413 148.981 91.5282 149.493C91.0152 150.005 91.896 150.99 92.4005 151.418Z" fill="white"/>
<path d="M94.0276 151.429C93.9775 150.572 94.023 148.965 94.6061 149.396C95.1891 149.827 94.4633 150.931 94.0276 151.429Z" fill="white"/>
<path d="M96.9412 117.442L97.5602 124.765C93.5283 128.599 86.1088 127.151 82.903 125.947L82.3827 118.476L96.9412 117.442Z" fill="white"/>
<path d="M97.5601 124.765C96.6157 128.716 92.2744 134.121 82.9178 125.893L97.5601 124.765Z" fill="white"/>
<ellipse cx="7.30377" cy="1.259" rx="7.30377" ry="1.259" transform="matrix(0.998687 -0.0655047 0.0656141 0.997009 82.3025 117.183)" fill="white"/>
<path d="M88.6191 120.02C88.6552 120.036 88.6853 120.048 88.7124 120.064C88.9398 120.19 89.0877 120.353 89.1661 120.6C89.1993 120.705 89.2207 120.815 89.2468 120.921C89.2696 121.015 89.2922 121.107 89.3168 121.201C89.3235 121.225 89.3213 121.236 89.2936 121.244C89.2346 121.257 89.1873 121.293 89.1701 121.354C89.1539 121.409 89.169 121.457 89.2061 121.495C89.2434 121.535 89.2931 121.546 89.3461 121.54C89.3725 121.536 89.3887 121.523 89.3995 121.496C89.4862 121.294 89.5253 121.083 89.524 120.864C89.5221 120.683 89.4851 120.507 89.4554 120.331C89.4389 120.231 89.4257 120.129 89.4057 120.029C89.3941 119.966 89.3881 119.906 89.396 119.842C89.4038 119.778 89.4247 119.717 89.462 119.66C89.5138 119.701 89.551 119.753 89.5712 119.813C89.5893 119.87 89.6007 119.931 89.61 119.989C89.6199 120.053 89.6211 120.117 89.6273 120.179C89.6431 120.344 89.6572 120.509 89.6783 120.673C89.7153 120.947 89.8168 121.193 89.9858 121.408C90.0075 121.437 90.0332 121.443 90.0661 121.435C90.1496 121.416 90.2044 121.341 90.1942 121.262C90.1847 121.188 90.111 121.13 90.028 121.138C89.9979 121.14 89.9948 121.13 89.9951 121.105C89.9943 120.974 89.9916 120.841 89.9891 120.71C89.9878 120.561 89.9777 120.414 90.0197 120.268C90.0754 120.075 90.1757 119.936 90.3288 119.805C90.3402 119.796 90.3516 119.788 90.3678 119.775C90.3699 119.79 90.3712 119.801 90.3726 119.812C90.4605 120.495 90.5448 121.149 90.6327 121.832C90.6377 121.871 90.6377 121.871 90.6008 121.877C90.4619 121.896 90.3213 121.916 90.1825 121.936C90.1579 121.939 90.1483 121.948 90.1462 121.973C90.1298 122.166 90.0549 122.335 89.917 122.473C89.8886 122.502 89.8646 122.538 89.8383 122.57C89.7474 122.49 89.6285 122.442 89.5479 122.343C89.4821 122.263 89.4261 122.175 89.3936 122.076C89.3854 122.054 89.3739 122.048 89.3528 122.051C89.2105 122.071 89.0699 122.091 88.9276 122.111C88.903 122.115 88.8917 122.111 88.8881 122.083C88.7997 121.396 88.7148 120.736 88.6264 120.049C88.6225 120.046 88.6216 120.039 88.6191 120.02ZM88.8141 120.312C88.8108 120.314 88.8056 120.315 88.8023 120.317C88.8039 120.33 88.8055 120.342 88.8071 120.354C88.8495 120.685 88.8886 120.988 88.9311 121.318C88.9381 121.373 88.9381 121.373 88.9944 121.365C89.0154 121.362 89.0253 121.355 89.0279 121.333C89.0405 121.265 89.0763 121.21 89.1303 121.17C89.153 121.152 89.1545 121.136 89.1478 121.111C89.1163 120.992 89.0829 120.871 89.0566 120.751C89.028 120.625 88.9876 120.534 88.91 120.432C88.8795 120.389 88.8462 120.353 88.8141 120.312ZM90.2629 120.113C90.2593 120.113 90.2574 120.112 90.2538 120.112C90.2451 120.128 90.2364 120.144 90.2294 120.159C90.1745 120.274 90.1289 120.365 90.1275 120.493C90.1269 120.655 90.1297 120.816 90.1308 120.978C90.13 121 90.1371 121.013 90.1598 121.022C90.2221 121.048 90.2704 121.089 90.3017 121.151C90.3161 121.18 90.3363 121.184 90.3809 121.169C90.4083 121.16 90.395 121.14 90.393 121.124C90.3498 120.789 90.3101 120.48 90.2667 120.143C90.2671 120.132 90.2657 120.121 90.2629 120.113ZM89.3401 121.688C89.3311 121.688 89.3203 121.687 89.3076 121.685C89.1937 121.676 89.1005 121.634 89.0506 121.524C89.0433 121.509 89.0354 121.503 89.0198 121.507C89.0075 121.509 88.9952 121.51 88.9829 121.512C88.9653 121.515 88.9592 121.523 88.9615 121.54C88.9785 121.673 88.9958 121.807 89.0145 121.939C89.0155 121.946 89.0316 121.96 89.0386 121.959C89.1337 121.947 89.2304 121.934 89.325 121.918C89.3321 121.917 89.3445 121.903 89.3454 121.896C89.3438 121.828 89.3422 121.76 89.3401 121.688ZM90.0923 121.582C90.1084 121.651 90.1258 121.717 90.1417 121.785C90.1459 121.804 90.16 121.802 90.174 121.8C90.2637 121.788 90.3513 121.773 90.4412 121.763C90.4693 121.759 90.4767 121.747 90.4715 121.72C90.4546 121.602 90.4411 121.484 90.4257 121.364C90.4186 121.309 90.4186 121.309 90.3641 121.317C90.3483 121.319 90.3343 121.321 90.3315 121.341C90.3133 121.45 90.245 121.517 90.1504 121.561C90.13 121.569 90.1091 121.574 90.0923 121.582ZM89.6556 121.137C89.6239 121.28 89.5918 121.419 89.5321 121.553C89.5913 121.582 89.6468 121.611 89.7039 121.637C89.7116 121.641 89.7287 121.635 89.7368 121.628C89.7789 121.594 89.817 121.556 89.859 121.521C89.8719 121.51 89.8743 121.501 89.8635 121.487C89.7846 121.388 89.7257 121.278 89.6716 121.163C89.6652 121.155 89.6603 121.145 89.6556 121.137ZM89.5396 122.028C89.5443 122.121 89.6646 122.291 89.7256 122.306C89.7271 122.304 89.7286 122.302 89.7286 122.302C89.7168 122.21 89.7068 122.118 89.6934 122.028C89.6925 122.021 89.6789 122.012 89.6716 122.011C89.6272 122.014 89.5835 122.022 89.5396 122.028ZM89.8736 122.288C89.9435 122.234 90.0071 122.032 89.9857 121.963C89.947 121.969 89.9049 121.975 89.8662 121.98C89.8434 121.984 89.8375 121.993 89.8402 122.015C89.8497 122.089 89.8593 122.163 89.8688 122.237C89.8691 122.253 89.8711 122.269 89.8736 122.288ZM89.5831 121.88C89.606 121.877 89.6308 121.875 89.6532 121.868C89.6602 121.867 89.6725 121.851 89.67 121.846C89.6495 121.77 89.5917 121.71 89.5156 121.703C89.4993 121.702 89.491 121.706 89.4895 121.723C89.4886 121.771 89.4895 121.82 89.4888 121.87C89.4893 121.888 89.5008 121.894 89.5166 121.891C89.5374 121.887 89.5603 121.883 89.5831 121.88ZM89.9065 121.834C89.9276 121.831 89.9469 121.829 89.968 121.826C89.9893 121.825 90.0005 121.814 89.994 121.792C89.983 121.748 89.9721 121.705 89.9594 121.662C89.9531 121.641 89.9419 121.637 89.9217 121.647C89.8575 121.676 89.807 121.757 89.8141 121.826C89.815 121.833 89.8289 121.844 89.8362 121.844C89.861 121.843 89.8836 121.838 89.9065 121.834Z" fill="white"/>
<path d="M96.9412 117.442L97.5602 124.765C93.5283 128.599 86.1088 127.151 82.903 125.947L82.3827 118.476C82.3827 118.476 83.5693 118.645 84.33 118.599C85.2414 118.545 86.6176 118.118 86.6176 118.118L91.0922 124.34L92.9874 117.411C92.9874 117.411 94.1815 117.958 94.9937 117.958C95.7806 117.957 96.9412 117.442 96.9412 117.442Z" fill="white"/>
<ellipse cx="91.0102" cy="206.631" rx="14.761" ry="4.01898" fill="white"/>
<rect x="74.8901" y="197.7" width="33.1004" height="12.95" fill="white"/>
<path d="M84.8032 325.646C82.5627 295.068 88.8504 289.691 97.0487 289.093C105.247 288.494 112.251 292.9 114.492 323.478C116.732 354.057 105.162 399.827 105.162 399.827C102.618 365.099 87.0437 356.225 84.8032 325.646Z" fill="#FF0000"/>
<path d="M98.4109 307.684C96.1704 277.106 102.458 271.729 110.656 271.13C118.855 270.532 125.859 274.938 128.1 305.516C130.34 336.095 118.77 381.865 118.77 381.865C116.225 347.137 100.651 338.263 98.4109 307.684Z" fill="#FF0000"/>
<path d="M68.1186 301.619C65.8781 271.041 72.1658 265.664 80.3641 265.066C88.5624 264.467 95.5668 268.873 97.8073 299.451C100.048 330.03 88.4777 375.8 88.4777 375.8C85.9331 341.072 70.3591 332.198 68.1186 301.619Z" fill="#FF0000"/>
<rect x="49.1396" y="108.288" width="89.5961" height="175.672" fill="#B7B7B7"/>
<ellipse cx="93.9377" cy="283.781" rx="44.798" ry="17.7103" fill="#B7B7B7"/>
<path fill-rule="evenodd" clip-rule="evenodd" d="M138.737 101.133L49.1408 101.133L49.1408 276.549C49.1405 276.575 49.1404 276.6 49.1404 276.626C49.1404 276.652 49.1405 276.678 49.1408 276.704L49.1408 276.805L49.1426 276.805C49.3857 286.504 69.3484 294.337 93.9384 294.337C118.528 294.337 138.491 286.504 138.734 276.805L138.737 276.805L138.737 101.133Z" fill="url(#paint0_linear_12469_801)"/>
<path d="M49.1392 99.9126C49.1394 134.792 138.857 134.792 138.857 99.9126C138.857 52.219 93.2802 0.595216 93.2802 0.595216C93.2802 0.595216 49.1389 51.8619 49.1392 99.9126Z" fill="url(#paint1_linear_12469_801)"/>
<path d="M4.90088 258.885L49.0419 258.885L49.0419 159.568C49.0419 159.568 4.90074 210.835 4.90088 258.885Z" fill="url(#paint2_linear_12469_801)"/>
<path d="M182.901 258.885L138.76 258.885L138.76 159.568C138.76 159.568 182.901 210.835 182.901 258.885Z" fill="url(#paint3_linear_12469_801)"/>
<ellipse cx="91.0207" cy="201.384" rx="29.9748" ry="37.7669" fill="#EDEDED"/>
<ellipse cx="91.0202" cy="201.384" rx="25.0134" ry="33.2266" fill="#888888"/>
<ellipse cx="2.02007" cy="3.17442" rx="2.02007" ry="3.17442" transform="matrix(0.986705 0.167336 -0.167615 0.985047 79.1541 131.312)" fill="black"/>
<ellipse cx="2.02007" cy="3.17442" rx="2.02007" ry="3.17442" transform="matrix(-0.988253 0.157966 0.15823 0.986593 103.513 130.875)" fill="black"/>
<path fill-rule="evenodd" clip-rule="evenodd" d="M91.5094 123.63C87.5138 123.659 79.8035 125.391 80.9269 132.086C81.68 136.574 80.2252 138.108 78.6525 139.765C77.2927 141.199 75.8448 142.725 75.6602 146.334C75.4925 149.612 76.38 151.911 77.2657 154.205C78.4828 157.358 79.6968 160.503 78.1652 166.17C76.0484 174.003 75.937 196.448 76.2497 206.613L91.1148 206.613L91.1148 206.613L105.772 206.683C106.181 196.521 106.489 174.291 104.447 166.438C103.008 160.905 104.745 158.159 106.477 155.421C107.817 153.302 109.154 151.187 109.013 147.79C108.862 144.158 107.006 142.369 105.218 140.645C103.173 138.674 101.218 136.789 102.01 132.33C103.197 125.646 95.5039 123.841 91.5087 123.774L91.5094 123.63Z" fill="white"/>
<ellipse cx="4.88203" cy="6.87666" rx="4.88203" ry="6.87666" transform="matrix(-0.906265 0.423982 0.424691 0.904744 81.5413 141.361)" fill="url(#paint4_radial_12469_801)"/>
<ellipse cx="4.88203" cy="6.87666" rx="4.88203" ry="6.87666" transform="matrix(-0.839164 -0.544506 -0.545417 0.837757 111.448 147.012)" fill="url(#paint5_radial_12469_801)"/>
<path d="M106.078 189.525C95.4563 194.055 81.5631 192.336 76.2864 190.013L76.3392 193.488C88.2586 199.636 101.086 195.621 106.127 192.97L106.078 189.525Z" fill="#005BBB"/>
<path d="M106.156 192.862C93.4435 198.801 81.6241 195.695 76.3141 193.432L76.4128 196.155C88.4249 202.17 101.123 199.404 106.101 196.686L106.156 192.862Z" fill="#FFD500"/>
<ellipse opacity="0.2" cx="0.905879" cy="1.42353" rx="0.905879" ry="1.42353" transform="matrix(0.912008 0.411526 -0.412214 0.910477 101.663 131.605)" fill="white"/>
<ellipse opacity="0.2" cx="0.905879" cy="1.42353" rx="0.905879" ry="1.42353" transform="matrix(0.912008 0.411526 -0.412214 0.910477 80.2766 131.825)" fill="white"/>
<path d="M83.2718 139.849C82.8575 129.813 92.5072 128.184 92.4657 128.307C102.148 130.947 101.235 139.592 100.885 140.87C99.9232 144.388 105.788 147.53 104.013 151.193C102.239 154.856 102.227 162.502 100.757 167.83C99.8566 171.094 98.514 172.282 97.5675 172.581C97.8203 172.584 97.7145 172.597 97.4608 172.611C97.2163 172.674 97.0024 172.676 96.8351 172.641C97.0677 172.631 97.2956 172.621 97.4608 172.611C97.4958 172.603 97.5314 172.592 97.5675 172.581C97.2354 172.576 96.284 172.587 94.2357 172.628C88.4586 172.745 88.1336 165.175 83.1926 156.501C78.2516 147.827 83.7898 152.395 83.2718 139.849Z" fill="#FF6B0A"/>
<path d="M94.2529 168.952C89.6337 168.526 88.1902 158.279 88.0459 153.208C90.8889 152.597 97.0498 151.751 98.9489 153.26C101.323 155.145 100.027 169.484 94.2529 168.952Z" fill="black"/>
<path d="M95.1978 167.659C98.4346 167.27 97.4477 160.197 96.5497 156.708L90.2678 156.678C90.5625 160.5 91.9611 168.047 95.1978 167.659Z" fill="#956C7C"/>
<path d="M94.8518 165.127C95.5218 164.654 94.5795 157.654 94.0246 154.213L92.6438 154.354C93.1006 158.142 94.1818 165.601 94.8518 165.127Z" fill="#86616F"/>
<path d="M86.1873 149.306C89.3382 142.689 87.5361 139.005 86.2412 137.989C91.1239 131.611 96.6996 135.372 98.8772 138.049C95.1638 144.519 97.9323 139.342 100.267 149.373C102.135 157.398 96.8226 160.098 93.9327 160.444C90.038 159.489 83.0365 155.923 86.1873 149.306Z" fill="#EB6005"/>
<path d="M100.646 152.72C93.2998 142.651 87.8061 149.968 85.9775 154.885C86.6418 156.907 89.1984 160.855 94.1103 160.475C99.0222 160.094 100.514 155.147 100.646 152.72Z" fill="#EFE5D5"/>
<path d="M92.4003 151.418C92.3233 150.563 92.041 148.981 91.528 149.493C91.0149 150.005 91.8958 150.99 92.4003 151.418Z" fill="#DACAB0"/>
<path d="M94.0273 151.429C93.9772 150.572 94.0228 148.965 94.6058 149.396C95.1888 149.827 94.4631 150.931 94.0273 151.429Z" fill="#DACAB0"/>
<ellipse cx="91.0102" cy="206.631" rx="14.761" ry="4.01898" fill="white"/>
<rect x="74.8901" y="197.7" width="33.1004" height="12.95" fill="url(#paint6_linear_12469_801)"/>
</g>
<defs>
<filter id="filter0_d_12469_801" x="0.900879" y="0.595215" width="186" height="407.232" filterUnits="userSpaceOnUse" color-interpolation-filters="sRGB">
<feFlood flood-opacity="0" result="BackgroundImageFix"/>
<feColorMatrix in="SourceAlpha" type="matrix" values="0 0 0 0 0 0 0 0 0 0 0 0 0 0 0 0 0 0 127 0" result="hardAlpha"/>
<feOffset dy="4"/>
<feGaussianBlur stdDeviation="2"/>
<feComposite in2="hardAlpha" operator="out"/>
<feColorMatrix type="matrix" values="0 0 0 0 0 0 0 0 0 0 0 0 0 0 0 0 0 0 0.25 0"/>
<feBlend mode="normal" in2="BackgroundImageFix" result="effect1_dropShadow_12469_801"/>
<feBlend mode="normal" in="SourceGraphic" in2="effect1_dropShadow_12469_801" result="shape"/>
</filter>
<linearGradient id="paint0_linear_12469_801" x1="51.7899" y1="148.989" x2="177.908" y2="184.315" gradientUnits="userSpaceOnUse">
<stop stop-color="#C8C8C8"/>
<stop offset="1" stop-color="white"/>
</linearGradient>
<linearGradient id="paint1_linear_12469_801" x1="51.7922" y1="94.9916" x2="166.58" y2="45.4186" gradientUnits="userSpaceOnUse">
<stop stop-color="#C8C8C8"/>
<stop offset="1" stop-color="white"/>
</linearGradient>
<linearGradient id="paint2_linear_12469_801" x1="6.20619" y1="234.285" x2="68.7109" y2="217.506" gradientUnits="userSpaceOnUse">
<stop stop-color="#C8C8C8"/>
<stop offset="1" stop-color="white"/>
</linearGradient>
<linearGradient id="paint3_linear_12469_801" x1="181.596" y1="234.285" x2="119.091" y2="217.506" gradientUnits="userSpaceOnUse">
<stop stop-color="#C8C8C8"/>
<stop offset="1" stop-color="white"/>
</linearGradient>
<radialGradient id="paint4_radial_12469_801" cx="0" cy="0" r="1" gradientUnits="userSpaceOnUse" gradientTransform="translate(4.88203 6.87666) rotate(90) scale(6.87666 4.88203)">
<stop stop-color="#FFBBBB"/>
<stop offset="1" stop-color="#FFBBBB" stop-opacity="0"/>
</radialGradient>
<radialGradient id="paint5_radial_12469_801" cx="0" cy="0" r="1" gradientUnits="userSpaceOnUse" gradientTransform="translate(4.88203 6.87666) rotate(90) scale(6.87666 4.88203)">
<stop stop-color="#FFBBBB"/>
<stop offset="1" stop-color="#FFBBBB" stop-opacity="0"/>
</radialGradient>
<linearGradient id="paint6_linear_12469_801" x1="91.4403" y1="197.7" x2="91.4403" y2="210.65" gradientUnits="userSpaceOnUse">
<stop stop-color="#888888" stop-opacity="0"/>
<stop offset="1" stop-color="#888888"/>
</linearGradient>
</defs>
</svg>
